Poster:

Format : AVI
Format/Info : Audio Video Interleave
File size : 940 MiB
Duration : 2h 25mn
Overall bit rate : 905 Kbps
Writing application : MEncoder Sherpya-SVN-r32492-4.2.5
Writing library : MPlayer

Video
ID : 0
Format : MPEG-4 Visual
Format profile : Simple@L3
Format settings, BVOP : No
Format settings, QPel : No
Format settings, GMC : No warppoints
Format settings, Matrix : Default (H.263)
Codec ID : XVID
Codec ID/Hint : XviD
Duration : 2h 25mn
Bit rate : 768 Kbps
Width : 640 pixels
Height : 480 pixels
Display aspect ratio : 4:3
Frame rate : 25.000 fps
Color space : YUV
Chroma subsampling : 4:2:0
Bit depth : 8 bits
Scan type : Progressive
Compression mode : Lossy
Bits/(Pixel*Frame) : 0.100
Stream size : 798 MiB (85%)
Writing library : XviD 1.2.1 (UTC 2008-12-04)

Audio
ID : 1
Format : MPEG Audio
Format version : Version 1
Format profile : Layer 3
Mode : Joint stereo
Mode extension : MS Stereo
Codec ID : 55
Codec ID/Hint : MP3
Duration : 2h 25mn
Bit rate mode : Constant
Bit rate : 32.0 Kbps
Channel(s) : 2 channels
Sampling rate : 44.1 KHz
Compression mode : Lossy
Stream size : 129 MiB (14%)
Alignment : Aligned on interleaves
Interleave, duration : 26 ms (0.65 video frame)
Interleave, preload duration : 133 ms
Writing library : LAME3.98.4



SCREENS: 
http://imgh.us/Ordinary_dvd_010.png 
http://imgh.us/306688_292411077523441_923174870_n.jpg 
http://imgh.us/Ordinary_dvd_009.png 
http://imgh.us/Ordinary_dvd_008.png 
http://imgh.us/tejas_2012_07_05_08h11m22s40.jpg